<?xml version="1.0" encoding="UTF-8"?><svg xmlns="http://www.w3.org/2000/svg" xmlns:xlink="http://www.w3.org/1999/xlink" height="450.9" preserveAspectRatio="xMidYMid meet" version="1.0" viewBox="-1.0 -0.3 459.6 450.9" width="459.6" zoomAndPan="magnify"><defs><clipPath id="a"><path d="M 269 236 L 392 236 L 392 450.550781 L 269 450.550781 Z M 269 236"/></clipPath><clipPath id="b"><path d="M 349 47 L 458.589844 47 L 458.589844 177 L 349 177 Z M 349 47"/></clipPath><clipPath id="c"><path d="M 169 271 L 221 271 L 221 450.550781 L 169 450.550781 Z M 169 271"/></clipPath></defs><g><g id="change1_2"><path d="M 159.660156 99.179688 C 170.777344 97.5625 171.992188 85.09375 171.894531 75.402344 C 171.734375 59.480469 162.742188 46.148438 151.976562 44.953125 L 152.511719 44.835938 C 134.722656 43.914062 131.71875 68.5625 138.984375 86.203125 C 142.867188 95.617188 148.09375 100.859375 159.660156 99.179688" fill="#d07170"/></g><g id="change1_3"><path d="M 214.089844 68.957031 L 218.054688 70.195312 C 190.96875 66.472656 188.984375 146.492188 227.304688 133.46875 C 262.980469 122.300781 232.589844 58.410156 214.089844 68.957031" fill="#d07170"/></g><g id="change1_4"><path d="M 174.0625 177.234375 C 171.710938 176.921875 168.777344 176.683594 166.183594 176.554688 C 166.5 176.234375 166.621094 175.601562 166.367188 174.550781 C 165.90625 172.636719 164.367188 170.96875 164.410156 168.863281 C 164.460938 166.402344 165.042969 164.25 165.96875 162.269531 C 168.882812 167.1875 173.023438 171.507812 178.003906 173.703125 C 177.285156 175.8125 176.082031 177.503906 174.0625 177.234375 Z M 162.925781 174.667969 C 163.28125 175.476562 163.898438 176.117188 164.523438 176.480469 C 164.074219 176.464844 163.648438 176.453125 163.242188 176.449219 C 163 175.785156 162.851562 175.175781 162.925781 174.667969 Z M 94.386719 224.15625 C 98.28125 224.804688 102.199219 225.328125 106.1875 225.585938 C 117.746094 226.339844 129.484375 225.363281 140.988281 224.25 C 146.488281 223.71875 152.050781 223.246094 157.5 222.304688 C 160.421875 221.800781 163.273438 221.128906 166.144531 220.558594 C 161.898438 208.464844 158.722656 196.265625 158.382812 184.230469 C 160.410156 184.738281 162.535156 184.785156 164.113281 183.882812 C 165.320312 183.191406 165.414062 182.078125 165.074219 180.828125 L 189.0625 201.234375 L 214.730469 176.566406 C 214.730469 176.566406 203.394531 178.234375 199.394531 176.234375 C 197.273438 175.175781 196.566406 172.898438 196.359375 170.992188 C 201.824219 166.429688 205.191406 158.910156 205.613281 152.054688 C 206.671875 134.785156 194.558594 114.445312 183.363281 112.320312 L 184.136719 112.195312 C 168.203125 110 158.625 130.308594 161.242188 148.617188 C 159.613281 150.265625 157.949219 151.976562 156.429688 153.761719 C 152.324219 151.304688 148.214844 149.90625 144.277344 150.207031 L 150.390625 142.714844 C 149.0625 142.363281 141.390625 142.609375 136.386719 143.21875 C 133.421875 143.582031 132.257812 139.761719 131.800781 136.582031 C 134.378906 134.15625 136.195312 130.925781 137.34375 127.210938 C 143.597656 132.347656 149.742188 138.210938 154.972656 145.242188 L 160.585938 107.863281 L 134.589844 94.320312 C 129.988281 83.105469 122.164062 74.835938 113.277344 76.753906 L 112.976562 76.460938 L 115.253906 75.191406 C 113.921875 74.761719 112.605469 74.660156 111.320312 74.84375 L 104.675781 68.34375 C 89.601562 52.242188 84.007812 49.785156 69.824219 34.96875 C 68.390625 32.105469 67.257812 29.101562 65.742188 26.269531 C 65.070312 25.0625 63.734375 22.285156 62.59375 24.503906 C 62.085938 25.558594 62.984375 27.132812 62.589844 28.308594 C 61.671875 27.324219 60.628906 26.460938 59.957031 25.25 C 58.601562 23.066406 56.6875 16.230469 53.722656 16.011719 C 50.289062 15.660156 51.976562 22.136719 52.152344 24.042969 C 52.355469 28.683594 53.082031 31.914062 55.566406 35.917969 C 56.277344 37.085938 57.101562 38.269531 57.992188 39.425781 C 57.988281 39.425781 57.988281 39.429688 57.984375 39.429688 C 70.664062 59.871094 82.644531 73.964844 96.808594 91.589844 C 90.242188 109.691406 91.792969 136.4375 112.6875 140.625 C 112.261719 141.148438 111.738281 141.605469 111.066406 141.929688 C 107.042969 143.886719 95.730469 142.089844 95.730469 142.089844 L 105.238281 151.015625 C 98.46875 150.410156 92.652344 152.914062 87.746094 156.628906 L 87.234375 173.074219 L 88.113281 186.859375 C 90 197.796875 94.109375 208.472656 95.863281 219.5625 C 95.347656 221.09375 94.859375 222.621094 94.386719 224.15625" fill="#d07170"/></g><g id="change1_5"><path d="M 17.378906 60.484375 C 15.949219 57.21875 15.023438 53.769531 13.59375 50.503906 C 13.015625 49.242188 11.902344 46.367188 10.589844 48.496094 C 10 49.503906 10.773438 51.144531 10.285156 52.285156 C 9.449219 51.234375 8.476562 50.289062 7.902344 49.03125 C 6.722656 46.746094 5.351562 39.78125 2.414062 39.332031 C -0.984375 38.714844 0.191406 45.300781 0.214844 47.214844 C 0.0546875 51.855469 0.527344 55.136719 2.6875 59.320312 C 4.546875 62.996094 7.339844 66.890625 10.363281 69.738281 L 12.898438 70.617188 C 13.8125 72.035156 15.308594 72.5625 16.789062 73.207031 C 19.855469 74.625 23.097656 75.585938 21.933594 71.03125 C 21.148438 67.359375 18.894531 64.003906 17.378906 60.484375" fill="#d07170"/></g><g id="change1_6"><path d="M 301.359375 103.683594 C 297.761719 114.199219 299.011719 126.03125 308.894531 133.484375 C 309.253906 133.753906 309.605469 133.996094 309.964844 134.242188 C 309.460938 135.613281 308.574219 136.914062 307.03125 137.5625 C 302.90625 139.289062 291.707031 136.867188 291.707031 136.867188 L 315.664062 163.199219 L 346.25 140.527344 C 344.941406 140.105469 337.273438 139.925781 332.238281 140.257812 C 330.269531 140.386719 329.191406 138.734375 328.601562 136.675781 C 336.164062 133.242188 342.21875 124.609375 345.785156 114.898438 C 345.574219 114.640625 345.472656 114.300781 345.617188 113.890625 C 347.554688 108.300781 348.195312 100.230469 345.851562 94.046875 C 350.074219 90.824219 353.703125 87.710938 356.296875 84.472656 C 373.671875 62.355469 387.453125 47.1875 402.183594 23.433594 C 402.183594 23.429688 402.183594 23.429688 402.179688 23.425781 C 403.070312 22.269531 403.894531 21.089844 404.605469 19.921875 C 407.089844 15.917969 407.8125 12.6875 408.019531 8.046875 C 408.191406 6.136719 409.882812 -0.335938 406.445312 0.015625 C 403.484375 0.234375 401.570312 7.070312 400.214844 9.253906 C 399.542969 10.460938 398.5 11.328125 397.582031 12.308594 C 397.1875 11.132812 398.085938 9.558594 397.578125 8.507812 C 396.433594 6.285156 395.101562 9.0625 394.425781 10.273438 C 392.914062 13.105469 391.777344 16.105469 390.347656 18.972656 C 376.160156 33.789062 370.570312 36.246094 355.496094 52.347656 L 332.757812 74.585938 L 299.585938 91.863281 L 301.359375 103.683594" fill="#d07170"/></g><g clip-path="url(#a)" id="change1_14"><path d="M 384.308594 369.746094 C 380.375 346.304688 374.75 321.574219 373.179688 302.214844 L 325.074219 262.589844 C 328.566406 253.90625 331.890625 245.171875 334.589844 236.230469 L 315.867188 255.003906 L 310.269531 250.394531 C 311.257812 252.789062 312.289062 255.160156 313.359375 257.519531 L 277.039062 293.949219 C 277.371094 313.371094 274.1875 338.53125 272.5625 362.246094 C 271.65625 375.476562 271.234375 388.261719 272.179688 399.347656 C 272.402344 401.984375 269.101562 404.429688 269.617188 405.804688 C 272.023438 412.253906 281.714844 409.046875 284.570312 401.019531 C 286.871094 394.558594 287.757812 383.238281 288.4375 379.707031 C 289.257812 375.65625 290.125 371.613281 291.027344 367.574219 C 293.820312 376.101562 297.445312 384.414062 302.304688 392.453125 C 309.183594 404.777344 327.460938 424.292969 336.71875 435.355469 C 343.605469 443.152344 340.914062 447.082031 344.71875 449.683594 C 348.523438 452.289062 350.949219 448.625 352.207031 444.023438 C 353.464844 439.421875 352.617188 433.980469 350.222656 430.46875 C 344.714844 421.515625 340.863281 413.886719 337.289062 404.21875 C 333.003906 392.613281 327.171875 380.675781 323.878906 368.964844 C 321.171875 360.179688 320.175781 350.964844 320.382812 341.691406 C 320.777344 324.257812 320.824219 309.015625 320.78125 293.261719 L 311.792969 296.160156 C 311.90625 295.855469 312.007812 295.542969 312.121094 295.234375 C 314.828125 287.726562 317.84375 280.316406 320.871094 272.914062 C 326.707031 284.253906 332.925781 295.421875 338.390625 306.921875 C 351.054688 333.109375 361.648438 360.691406 370.214844 388.671875 C 371.234375 392.121094 373.222656 403.304688 376.144531 409.507812 C 379.773438 417.21875 389.726562 419.464844 391.496094 412.808594 C 391.871094 411.390625 388.347656 409.28125 388.3125 406.632812 C 388.171875 395.507812 386.503906 382.828125 384.308594 369.746094" fill="#d07170"/></g><g clip-path="url(#b)" id="change1_1"><path d="M 456.445312 47.015625 C 453.484375 47.230469 451.570312 54.066406 450.214844 56.25 C 449.542969 57.460938 448.5 58.328125 447.582031 59.308594 C 447.1875 58.132812 448.085938 56.558594 447.578125 55.507812 C 446.433594 53.285156 445.101562 56.0625 444.425781 57.273438 C 442.914062 60.101562 441.777344 63.105469 440.347656 65.972656 C 426.160156 80.785156 420.570312 83.242188 405.496094 99.347656 L 382.757812 121.582031 L 349.585938 138.863281 L 355.199219 176.246094 C 371.40625 154.449219 396.363281 143.863281 406.300781 131.472656 C 423.671875 109.355469 437.625 94.394531 452.359375 70.640625 C 452.300781 70.566406 452.234375 70.507812 452.175781 70.4375 C 453.066406 69.277344 453.894531 68.089844 454.609375 66.921875 C 457.089844 62.917969 457.816406 59.6875 458.019531 55.042969 C 458.191406 53.136719 459.882812 46.664062 456.445312 47.015625" fill="#d07170"/></g><g id="change1_7"><path d="M 76.941406 269.789062 C 75.398438 270.265625 73.851562 270.621094 72.78125 271.929688 L 70.171875 272.523438 C 66.84375 275.015625 63.636719 278.578125 61.382812 282.023438 C 58.769531 285.941406 57.9375 289.148438 57.582031 293.78125 C 57.34375 295.683594 55.445312 302.09375 58.886719 301.859375 C 61.855469 301.738281 63.992188 294.96875 65.417969 292.832031 C 66.132812 291.644531 67.199219 290.8125 68.152344 289.863281 C 68.507812 291.050781 67.558594 292.59375 68.03125 293.664062 C 69.101562 295.921875 70.527344 293.1875 71.238281 292 C 73.019531 288.914062 74.328125 285.585938 76.109375 282.5 C 78.007812 279.175781 80.621094 276.085938 81.808594 272.523438 C 83.472656 268.128906 80.148438 268.722656 76.941406 269.789062" fill="#d07170"/></g><g clip-path="url(#c)" id="change1_13"><path d="M 185.230469 332.847656 C 191.972656 361.144531 196.386719 390.359375 198.742188 419.527344 C 199 423.113281 198.539062 434.464844 200.058594 441.148438 C 201.945312 449.460938 211.1875 453.792969 214.339844 447.671875 C 215.011719 446.367188 212.023438 443.550781 212.558594 440.957031 C 214.8125 430.0625 215.90625 417.320312 216.574219 404.070312 C 217.769531 380.332031 217.589844 354.972656 220.21875 335.726562 L 169.910156 271.597656 C 173.554688 292.300781 180.488281 312.359375 185.230469 332.847656" fill="#d07170"/></g><g id="change1_8"><path d="M 165.410156 301.808594 C 165.660156 299.792969 165.917969 297.867188 166.1875 296.050781 L 134.328125 259.40625 C 136.289062 252.195312 138.082031 244.953125 139.457031 237.625 L 126.59375 250.503906 L 115.152344 237.347656 C 116.277344 244.1875 117.761719 250.957031 119.402344 257.699219 L 88.566406 288.574219 C 90.972656 307.851562 90.359375 345.808594 91.285156 369.558594 C 91.800781 382.8125 92.75 395.566406 94.878906 406.484375 C 95.382812 409.085938 92.363281 411.871094 93.023438 413.179688 C 96.105469 419.335938 105.394531 415.113281 107.375 406.820312 C 108.972656 400.152344 108.640625 388.796875 108.9375 385.21875 C 111.625 356.078125 116.375 326.914062 123.441406 298.695312 C 124.464844 294.484375 125.585938 290.289062 126.75 286.109375 C 127.398438 288.664062 128.027344 291.222656 128.632812 293.789062 C 128.605469 308.195312 128.675781 322.359375 129.035156 338.371094 C 129.246094 347.644531 128.25 356.859375 125.542969 365.644531 C 122.25 377.355469 116.414062 389.292969 112.128906 400.898438 C 108.554688 410.566406 104.703125 418.191406 99.199219 427.148438 C 96.800781 430.660156 95.953125 436.097656 97.210938 440.699219 C 98.46875 445.304688 100.894531 448.964844 104.699219 446.363281 C 108.507812 443.757812 105.816406 439.828125 112.703125 432.03125 C 120.289062 422.96875 133.925781 408.230469 142.390625 396.421875 C 142.472656 400.210938 142.707031 404.195312 143.363281 407.230469 C 145.152344 415.566406 154.34375 420 157.566406 413.914062 C 158.253906 412.621094 155.300781 409.765625 155.863281 407.183594 C 158.238281 396.3125 159.480469 383.585938 160.300781 370.34375 C 160.609375 365.292969 160.929688 359.898438 161.261719 354.347656 C 165.46875 337.8125 167.191406 320.566406 169.113281 303.003906 L 165.410156 301.808594" fill="#d07170"/></g><g id="change1_9"><path d="M 279.910156 90.554688 C 291.46875 92.242188 301.265625 82.703125 305.152344 73.414062 C 312.4375 56.007812 304.414062 32.128906 286.640625 32.988281 L 287.40625 33.160156 C 276.09375 34.234375 262.5625 51.9375 262.382812 67.851562 C 262.273438 77.425781 268.800781 88.925781 279.910156 90.554688" fill="#d07170"/></g><g id="change1_10"><path d="M 237.15625 413.964844 C 238.308594 419.777344 239.40625 425.167969 240.171875 429.46875 C 242.265625 439.660156 237.972656 441.730469 239.980469 445.882812 C 241.984375 450.03125 245.910156 448.066406 249.292969 444.699219 C 252.671875 441.335938 254.644531 436.195312 254.316406 431.957031 C 254.105469 424.957031 254.246094 418.832031 254.863281 412.515625 C 248.964844 412.992188 243.0625 413.566406 237.15625 413.964844" fill="#d07170"/></g><g id="change1_11"><path d="M 388.042969 283.023438 C 385.785156 279.578125 382.578125 276.015625 379.253906 273.523438 L 376.640625 272.929688 C 375.570312 271.621094 374.027344 271.265625 372.484375 270.789062 C 369.277344 269.722656 365.949219 269.128906 367.613281 273.523438 C 368.800781 277.085938 371.414062 280.171875 373.3125 283.496094 C 375.097656 286.585938 376.402344 289.910156 378.183594 293 C 378.894531 294.1875 380.320312 296.917969 381.390625 294.660156 C 381.863281 293.59375 380.914062 292.050781 381.269531 290.859375 C 382.222656 291.8125 383.289062 292.644531 384.003906 293.832031 C 385.425781 295.96875 387.566406 302.738281 390.535156 302.855469 C 393.976562 303.09375 392.078125 296.679688 391.839844 294.78125 C 391.484375 290.148438 390.65625 286.941406 388.042969 283.023438" fill="#d07170"/></g><g id="change1_12"><path d="M 270.742188 171.886719 C 273.503906 170.484375 275.769531 168.605469 277.585938 166.359375 C 279.460938 168.855469 280.855469 171.546875 281.332031 174.761719 C 280.367188 175.707031 279.152344 176.804688 278.191406 177.917969 C 277.199219 178.011719 276.238281 178.117188 275.363281 178.234375 C 272.476562 178.621094 271.257812 175.011719 270.742188 171.886719 Z M 282.289062 184.074219 C 282.175781 186.167969 282.089844 187.59375 283.269531 189.277344 C 285.566406 192.558594 294.90625 184.601562 295.644531 181.902344 C 296.898438 177.316406 296.460938 174.351562 294.808594 170.378906 C 292.757812 165.453125 289.089844 161.035156 285.332031 157.230469 C 284.5 156.386719 283.660156 155.546875 282.824219 154.699219 C 284.113281 148.558594 283.882812 141.691406 282.566406 135.140625 C 282.234375 133.472656 281.824219 131.820312 281.363281 130.203125 C 277.296875 116.214844 268.5 105.148438 259.808594 108.492188 L 263.546875 110.316406 C 239.992188 103.359375 226.332031 166.222656 252.660156 173.929688 C 252.234375 175.261719 251.453125 176.523438 250.027344 177.234375 C 246.027344 179.234375 234.695312 177.566406 234.695312 177.566406 L 260.359375 202.234375 L 282.367188 183.515625 C 282.328125 183.75 282.296875 183.953125 282.289062 184.074219" fill="#d07170"/></g><g id="change2_1"><path d="M 136.382812 143.222656 C 138.652344 142.945312 141.472656 142.742188 144.003906 142.632812 C 144.113281 141.113281 144.085938 140.164062 144.085938 140.164062 C 146.773438 139.835938 149.523438 140.222656 152.324219 141.175781 C 150.925781 137.34375 150.175781 133.234375 150.175781 129.144531 C 150.175781 128.902344 150.183594 128.675781 150.183594 128.445312 C 149.09375 128.972656 148.003906 129.453125 146.933594 129.882812 C 142.875 131.503906 138.585938 132.753906 134.195312 133.804688 C 133.484375 134.8125 132.683594 135.742188 131.804688 136.585938 C 132.253906 139.765625 133.425781 143.585938 136.382812 143.222656" fill="#3d6c9d"/></g><g id="change2_2"><path d="M 228.558594 216.109375 L 229.730469 200.570312 L 229.363281 182.007812 C 223.210938 177.242188 215.757812 174.160156 206.882812 175.8125 L 187.132812 192.53125 L 166.394531 174.09375 C 147.445312 171.507812 124.1875 205.101562 113.851562 217.160156 C 95.761719 238.695312 80.917969 252.679688 65.414062 275.933594 C 67.996094 279.378906 73.164062 281.964844 76.609375 284.550781 C 92.976562 268.183594 103.207031 269.058594 119.570312 252.691406 L 137.054688 227.816406 L 149.394531 208.902344 C 149.394531 241.902344 129.394531 275.902344 118.394531 306.902344 C 113.828125 319.460938 109.929688 332.671875 106.480469 345.972656 C 116.703125 350.066406 129.285156 350.308594 139.394531 350.902344 C 170.585938 352.851562 201.355469 351.824219 232.25 347.589844 C 231.714844 315.410156 229.308594 283.476562 219.394531 252.902344 C 221.515625 240.414062 226.289062 228.421875 228.558594 216.109375" fill="#3d6c9d"/></g><g id="change2_3"><path d="M 252.664062 173.945312 C 252.234375 175.273438 251.441406 176.523438 250.023438 177.234375 C 248.671875 177.902344 246.503906 178.164062 244.191406 178.203125 L 244.03125 178.074219 C 244.023438 177.875 244.023438 177.664062 244.011719 177.453125 C 244.011719 177.292969 244.003906 177.132812 244.003906 176.964844 C 244.003906 176.734375 244.011719 176.492188 244.011719 176.253906 C 244.023438 176.105469 244.03125 175.945312 244.042969 175.785156 C 244.082031 174.863281 244.191406 173.914062 244.363281 172.925781 C 244.363281 172.894531 244.363281 172.875 244.371094 172.855469 C 244.5625 171.742188 244.832031 170.585938 245.203125 169.382812 C 247.203125 171.484375 249.675781 173.074219 252.664062 173.945312" fill="#3d6c9d"/></g><g id="change2_4"><path d="M 300.027344 209.902344 C 300.027344 215.855469 300.691406 221.839844 301.824219 227.835938 C 304.304688 228.179688 306.640625 228.53125 308.582031 228.871094 C 309.828125 229.050781 311.234375 229.214844 312.753906 229.367188 L 312.367188 228.816406 L 300.027344 209.902344" fill="#3d6c9d"/></g><g id="change2_5"><path d="M 409.195312 148.429688 C 407.515625 143.640625 405.5 138.828125 403.128906 134.324219 C 400.46875 129.136719 397.480469 123.921875 394.464844 119.042969 C 391.828125 113.523438 390.5 113.433594 385.554688 117.441406 C 376.035156 124.820312 367.609375 130.9375 355.988281 134.835938 C 350.511719 136.804688 339.199219 141.058594 333.257812 139.988281 L 331.574219 140.210938 C 329.242188 145.066406 320.21875 145.128906 315.960938 143.839844 C 310.375 142.464844 307.03125 137.558594 307.03125 137.558594 C 307.03125 137.558594 301.242188 134.167969 298.628906 133.320312 C 297.199219 132.933594 295.820312 132.484375 294.476562 131.992188 C 293.996094 132.015625 293.519531 132.066406 293.042969 132.105469 C 292.929688 136.035156 292.4375 140.230469 291.527344 144.359375 C 292.160156 148.808594 292.664062 152.914062 291.046875 157.53125 C 290.5625 158.921875 289.996094 160.308594 289.308594 161.609375 C 291.535156 164.308594 293.5 167.238281 294.808594 170.378906 C 295.972656 173.179688 296.519531 175.492188 296.308594 178.210938 C 311.8125 186.574219 327.570312 208.820312 335.574219 218.160156 C 339.386719 222.699219 343.046875 226.890625 346.605469 230.914062 C 361.027344 231.175781 373.386719 231.105469 373.386719 231.105469 C 373.386719 231.105469 371.664062 221.734375 368.472656 214.503906 C 364.730469 205.566406 361.347656 175.859375 361.347656 175.859375 C 361.347656 175.859375 367.722656 174.042969 374.949219 170.855469 C 380.429688 168.882812 385.949219 166.246094 391.429688 164.277344 C 396.90625 162.304688 404.953125 161.84375 409.523438 158.476562 C 414.070312 155.441406 411.214844 153.242188 409.195312 148.429688" fill="#3d6c9d"/></g><g id="change3_1"><path d="M 335.574219 218.160156 C 327.570312 208.820312 311.8125 186.574219 296.308594 178.210938 C 296.222656 179.347656 296.015625 180.550781 295.644531 181.902344 C 294.90625 184.601562 285.566406 192.558594 283.269531 189.277344 C 282.089844 187.59375 282.175781 186.167969 282.289062 184.074219 C 282.332031 183.324219 283.144531 180.152344 282.921875 178.375 C 280.8125 179.253906 279.054688 181.714844 276.59375 181.1875 C 276.585938 181.0625 276.589844 180.933594 276.601562 180.804688 L 262.289062 193.53125 L 242.542969 176.8125 C 233.664062 175.160156 226.210938 178.242188 220.058594 183.007812 L 219.695312 201.570312 L 220.863281 217.109375 C 223.035156 228.902344 227.503906 240.402344 229.738281 252.328125 C 254.925781 256.09375 284.214844 255.480469 305.878906 243.917969 C 302.363281 232.570312 300.027344 221.179688 300.027344 209.902344 L 312.367188 228.816406 L 329.851562 253.691406 C 346.21875 270.058594 356.445312 269.183594 372.8125 285.546875 C 376.257812 282.964844 381.425781 280.378906 384.011719 276.933594 C 368.507812 253.675781 353.664062 239.695312 335.574219 218.160156" fill="#c75c47"/></g><g id="change3_2"><path d="M 163.546875 24.011719 C 157.140625 28.984375 148.882812 27.796875 142.480469 32.769531 C 136.957031 36.363281 133.949219 44.140625 128.71875 47.273438 C 119.121094 53.257812 120.359375 61.910156 125.050781 69.871094 C 126.675781 70.394531 128.273438 71.054688 129.824219 71.863281 C 132.054688 72.976562 134.113281 74.523438 136.105469 76.222656 C 133.902344 63.984375 136.242188 51.273438 144.324219 46.640625 C 143.855469 47.515625 143.644531 48.296875 143.785156 48.933594 L 142.277344 49.265625 C 144.535156 52.320312 149.972656 51.90625 153.195312 50.402344 C 155 49.472656 156.339844 48.15625 157.34375 46.609375 C 160.949219 48.457031 164.160156 51.679688 166.644531 55.828125 C 169.269531 45.808594 167.394531 32.914062 163.546875 24.011719" fill="#c75c47"/></g><g id="change3_3"><path d="M 149.367188 210.414062 C 149.375 209.910156 149.394531 209.40625 149.394531 208.902344 L 148.367188 210.476562 C 148.695312 210.457031 149.027344 210.4375 149.367188 210.414062" fill="#c75c47"/></g><g id="change3_4"><path d="M 161.238281 148.617188 C 161.171875 148.140625 161.113281 147.660156 161.058594 147.183594 C 161.113281 147.660156 161.171875 148.140625 161.238281 148.617188" fill="#c75c47"/></g><g id="change3_5"><path d="M 166.796875 163.589844 C 166.441406 163.328125 166.09375 163.046875 165.75 162.746094 C 164.949219 164.59375 164.457031 166.601562 164.410156 168.863281 C 164.371094 170.789062 165.652344 172.355469 166.226562 174.078125 C 166.28125 174.085938 166.339844 174.082031 166.394531 174.089844 L 169.394531 176.757812 C 171.027344 176.886719 172.652344 177.046875 174.0625 177.234375 C 176.085938 177.503906 177.285156 175.8125 178.003906 173.703125 C 173.476562 171.707031 169.644531 167.953125 166.796875 163.589844" fill="#c75c47"/></g><g id="change3_6"><path d="M 152.320312 141.171875 C 149.527344 140.222656 146.769531 139.828125 144.089844 140.164062 C 144.089844 140.164062 144.316406 149.261719 140.070312 156.753906 C 140.515625 156.601562 140.957031 156.453125 141.390625 156.3125 C 146.421875 154.878906 151.632812 152.359375 153.96875 147.511719 C 154.171875 147.054688 154.347656 146.597656 154.5 146.136719 C 154.113281 145.34375 153.757812 144.59375 153.433594 143.910156 C 153.019531 143.019531 152.65625 142.101562 152.320312 141.171875" fill="#c75c47"/></g><g id="change3_7"><path d="M 137.257812 174.460938 C 137.257812 172.304688 138.335938 169.789062 137.976562 167.632812 C 134.761719 168.167969 129.054688 172.078125 130.410156 165.222656 C 128.820312 165.804688 127.050781 166.214844 125.066406 166.382812 C 105.40625 168.039062 103.585938 141.425781 103.585938 141.425781 L 71.871094 121.597656 L 50.945312 97.648438 C 36.5 79.5625 32.550781 76.585938 18.101562 58.503906 C 14.390625 60.6875 8.96875 62.683594 6.015625 65.820312 C 18.84375 90.65625 32.039062 106.199219 47.625 129.609375 C 54.332031 139.472656 66.933594 162.210938 80.890625 172.730469 L 81.449219 181.46875 C 82.902344 189.898438 85.527344 198.191406 87.675781 206.589844 C 95.664062 207.671875 103.632812 208.953125 111.628906 209.925781 C 114.144531 210.230469 116.660156 210.46875 119.171875 210.65625 C 125.09375 203.28125 132.945312 193.484375 141.351562 185.863281 C 140.804688 185.050781 140.277344 184.1875 139.773438 183.261719 C 138.15625 180.210938 137.078125 178.054688 137.257812 174.460938" fill="#c75c47"/></g><g id="change3_8"><path d="M 293.058594 129 C 293.082031 130.011719 293.070312 131.050781 293.039062 132.105469 C 293.519531 132.066406 293.996094 132.015625 294.476562 131.992188 C 295.035156 132.195312 295.601562 132.386719 296.171875 132.574219 C 296.351562 132.636719 296.53125 132.695312 296.710938 132.753906 C 297.339844 132.953125 297.976562 133.144531 298.628906 133.320312 C 301.242188 134.167969 307.03125 137.558594 307.03125 137.558594 C 308.574219 136.914062 309.460938 135.613281 309.964844 134.238281 C 309.609375 133.992188 309.253906 133.753906 308.894531 133.480469 C 304.484375 130.15625 301.800781 125.960938 300.492188 121.398438 C 287.101562 114.015625 285.78125 100.847656 290.992188 88.800781 C 287.617188 90.394531 283.867188 91.132812 279.910156 90.554688 C 273.167969 89.566406 268.117188 84.941406 265.210938 79.316406 C 264.25 80.335938 262.738281 80.882812 260.53125 80.625 L 259.863281 81.074219 C 262.207031 83.734375 267.96875 91.347656 271.488281 98.820312 C 287.917969 102.617188 292.703125 113.375 293.058594 129" fill="#c75c47"/></g><g id="change4_1"><path d="M 242.542969 176.8125 L 244.035156 178.074219 C 243.894531 175.515625 244.222656 172.625 245.203125 169.375 C 243.492188 167.585938 242.144531 165.394531 241.09375 162.953125 C 240.378906 161.9375 240.378906 161.933594 241.089844 162.949219 C 237.726562 155.101562 237.589844 144.480469 239.785156 134.796875 C 243.707031 130.523438 244.359375 122.277344 249.464844 119.851562 C 255.855469 116.609375 265.089844 116.855469 265.871094 108.378906 C 265.742188 113.058594 267.5 116.050781 271.929688 119.554688 C 276.726562 123.488281 280.03125 128.371094 279.902344 134.757812 C 279.894531 135.9375 279.96875 141.003906 281.96875 141.140625 C 282.550781 141.164062 282.964844 140.453125 283.269531 139.511719 C 283.328125 140.011719 283.390625 140.511719 283.4375 141.011719 C 283.449219 141.125 283.457031 141.242188 283.46875 141.359375 C 283.511719 141.863281 283.550781 142.371094 283.582031 142.875 C 283.589844 143.003906 283.597656 143.128906 283.605469 143.257812 C 283.636719 143.855469 283.660156 144.453125 283.671875 145.054688 C 283.671875 145.121094 283.671875 145.1875 283.671875 145.257812 C 283.679688 145.816406 283.679688 146.375 283.671875 146.933594 C 283.667969 147.019531 283.667969 147.105469 283.664062 147.191406 C 283.648438 147.816406 283.625 148.4375 283.585938 149.054688 C 283.585938 149.058594 283.582031 149.066406 283.582031 149.074219 C 283.542969 149.691406 283.488281 150.304688 283.421875 150.914062 C 283.414062 150.960938 283.410156 151.003906 283.40625 151.050781 C 283.265625 152.308594 283.070312 153.550781 282.8125 154.761719 C 282.8125 154.769531 282.8125 154.773438 282.808594 154.78125 C 282.027344 158.472656 280.691406 161.898438 278.707031 164.832031 L 278.710938 164.832031 C 276.160156 168.59375 272.550781 171.542969 267.65625 173.183594 C 266.558594 173.554688 265.398438 173.863281 264.160156 174.089844 L 263.96875 174.578125 C 263.964844 174.582031 263.960938 174.582031 263.957031 174.585938 C 260.738281 176.957031 258.914062 180.257812 259.285156 184.0625 C 256.996094 186.71875 256.199219 190.671875 256.601562 194.148438 C 255.445312 194.910156 254.59375 196.558594 254.261719 197.894531 C 253.476562 201.050781 254.449219 204.152344 255.085938 207.265625 C 255 208.925781 255.050781 210.332031 255.265625 211.394531 C 255.039062 211.625 254.875 211.890625 254.828125 212.203125 C 254.511719 214.261719 254.359375 215.476562 254.613281 217.257812 C 254.945312 219.542969 255.871094 221.71875 257.609375 222.742188 C 257.429688 221.703125 258.238281 220.8125 258.4375 219.496094 C 264.875 224.820312 260.910156 215.65625 260.097656 211.539062 C 262.726562 208.925781 265.222656 203.855469 264.335938 200.003906 C 265.410156 198.804688 266.417969 197.578125 267.351562 196.453125 C 268.632812 194.902344 271.121094 191.929688 270.769531 189.554688 C 274.160156 186.800781 276.984375 183.308594 276.28125 179.035156 C 280.613281 176.058594 285.84375 170.816406 285.238281 166.519531 C 288.207031 164.421875 289.84375 160.964844 291.046875 157.53125 C 292.664062 152.910156 292.15625 148.804688 291.523438 144.359375 C 292.679688 139.121094 293.171875 133.777344 293.058594 129 C 292.703125 113.375 287.917969 102.617188 271.488281 98.820312 C 267.96875 91.34375 262.207031 83.734375 259.863281 81.074219 L 260.535156 80.621094 C 262.742188 80.882812 264.253906 80.332031 265.214844 79.3125 C 263.324219 75.671875 262.34375 71.613281 262.382812 67.851562 C 262.394531 66.960938 262.445312 66.054688 262.542969 65.152344 C 259.023438 60.871094 254.035156 57.183594 249.335938 54.652344 L 249.5625 54.421875 C 252.925781 47.484375 237.472656 47.484375 234.113281 47.484375 C 227.84375 47.484375 220.894531 48.824219 215.523438 52.410156 L 214.625 51.960938 C 207.59375 49.101562 180.675781 51.644531 187.152344 63.402344 C 180.753906 63.734375 173.773438 67.03125 168.945312 70.773438 C 165.585938 73.460938 157.742188 82.191406 164.914062 85.101562 L 164.695312 85.773438 C 160.683594 87.777344 157.75 94.984375 156.21875 99.523438 C 152.464844 93.949219 149.390625 87.53125 144.464844 83.574219 C 139.605469 79.753906 135.214844 74.554688 129.824219 71.863281 C 123.542969 68.582031 116.503906 67.761719 110.015625 68.34375 C 102.523438 66.59375 96.453125 71.671875 91.605469 76.492188 C 83.015625 84.132812 79.316406 93.292969 78.566406 104.382812 C 78.246094 111.183594 77.875 117.703125 75.683594 123.972656 L 101.074219 139.851562 C 103.164062 139.5625 105.253906 139.242188 107.34375 138.894531 C 96.1875 133.683594 92.566406 120.378906 93.507812 107.226562 C 95.203125 105.925781 96.277344 104.121094 97.183594 101.019531 C 98.535156 97.675781 97.488281 97.554688 100.671875 94.847656 C 102.425781 93.460938 105.429688 93.179688 106.65625 90.882812 C 109.230469 85.238281 104.308594 82.855469 111.074219 77.707031 C 111.242188 77.609375 111.410156 77.507812 111.578125 77.402344 C 111.773438 77.429688 111.96875 77.460938 112.164062 77.480469 C 120.417969 79.511719 116.851562 83.65625 121.457031 87.808594 C 123.496094 89.425781 126.367188 88.488281 128.527344 89.0625 C 132.519531 90.269531 131.621094 90.800781 134.167969 93.316406 C 139.859375 106.425781 141.082031 123.980469 134.191406 133.800781 C 138.582031 132.753906 142.871094 131.503906 146.933594 129.882812 C 148.003906 129.453125 149.089844 128.972656 150.1875 128.445312 C 150.328125 121.835938 152.421875 115.335938 156.875 110.242188 C 157.53125 109.523438 158.21875 108.835938 158.921875 108.160156 C 159.058594 108.027344 159.195312 107.902344 159.332031 107.773438 C 160.035156 107.113281 160.75 106.472656 161.492188 105.867188 C 169.023438 99.695312 178.503906 96.320312 188.246094 99.148438 C 192.167969 100.105469 195.441406 102.121094 198.128906 104.800781 C 197.589844 91.808594 201.324219 78.324219 208.621094 72.742188 C 212.722656 76.703125 218.84375 79.710938 221.613281 77.550781 C 225.902344 80.003906 231.941406 84.03125 237.503906 84.820312 C 240.585938 90.765625 242.824219 97.632812 243.570312 104.34375 C 237.300781 109.363281 233.152344 116.980469 232.089844 126.148438 C 231.898438 127.90625 231.824219 129.734375 231.816406 131.585938 C 231.753906 131.617188 231.691406 131.652344 231.625 131.6875 C 231.046875 131.988281 230.449219 132.269531 229.824219 132.535156 C 229.679688 132.59375 229.527344 132.652344 229.382812 132.710938 C 228.757812 132.960938 228.117188 133.199219 227.449219 133.410156 C 227.398438 133.429688 227.351562 133.445312 227.300781 133.460938 C 223.679688 134.691406 220.421875 135.089844 217.507812 134.808594 C 213.828125 134.449219 210.703125 133.007812 208.101562 130.777344 C 208.101562 130.777344 208.101562 130.78125 208.101562 130.78125 C 208.121094 131.335938 208.136719 131.890625 208.136719 132.433594 C 208.136719 132.710938 208.132812 133.003906 208.128906 133.292969 C 208.128906 133.464844 208.128906 133.636719 208.125 133.816406 C 208.117188 134.179688 208.109375 134.550781 208.097656 134.929688 C 208.097656 135.007812 208.09375 135.085938 208.089844 135.164062 C 208.066406 135.910156 208.03125 136.6875 207.984375 137.488281 C 207.972656 137.664062 207.960938 137.839844 207.949219 138.015625 C 207.902344 138.738281 207.839844 139.480469 207.769531 140.230469 C 207.753906 140.417969 207.734375 140.605469 207.714844 140.796875 C 207.671875 141.222656 207.625 141.652344 207.574219 142.085938 C 207.535156 142.394531 207.492188 142.707031 207.449219 143.019531 C 207.417969 143.261719 207.390625 143.503906 207.355469 143.746094 C 206.972656 146.382812 206.417969 149.066406 205.621094 151.609375 C 205.621094 151.75 205.621094 151.898438 205.609375 152.050781 C 205.191406 158.910156 201.820312 166.429688 196.359375 170.988281 C 196.5625 172.890625 197.269531 175.171875 199.390625 176.230469 C 200.742188 176.910156 202.921875 177.160156 205.230469 177.210938 L 206.882812 175.808594 C 214.019531 174.480469 220.25 176.21875 225.609375 179.429688 C 230.554688 176.882812 236.183594 175.632812 242.542969 176.8125" fill="#2e2025"/></g><g id="change4_2"><path d="M 242.542969 176.8125 L 244.035156 178.074219 C 243.894531 175.515625 244.222656 172.625 245.203125 169.375 C 243.492188 167.585938 242.144531 165.394531 241.09375 162.953125 C 240.378906 161.9375 240.378906 161.933594 241.089844 162.949219 C 237.726562 155.101562 237.589844 144.480469 239.785156 134.796875 C 243.707031 130.523438 244.359375 122.277344 249.464844 119.851562 C 255.855469 116.609375 265.089844 116.855469 265.871094 108.378906 C 265.742188 113.058594 267.5 116.050781 271.929688 119.554688 C 276.726562 123.488281 280.03125 128.371094 279.902344 134.757812 C 279.894531 135.9375 279.96875 141.003906 281.96875 141.140625 C 282.550781 141.164062 282.964844 140.453125 283.269531 139.511719 C 283.328125 140.011719 283.390625 140.511719 283.4375 141.011719 C 283.449219 141.125 283.457031 141.242188 283.46875 141.359375 C 283.511719 141.863281 283.550781 142.371094 283.582031 142.875 C 283.589844 143.003906 283.597656 143.128906 283.605469 143.257812 C 283.636719 143.855469 283.660156 144.453125 283.671875 145.054688 C 283.671875 145.121094 283.671875 145.1875 283.671875 145.257812 C 283.679688 145.816406 283.679688 146.375 283.671875 146.933594 C 283.667969 147.019531 283.667969 147.105469 283.664062 147.191406 C 283.648438 147.816406 283.625 148.4375 283.585938 149.054688 C 283.585938 149.058594 283.582031 149.066406 283.582031 149.074219 C 283.542969 149.691406 283.488281 150.304688 283.421875 150.914062 C 283.414062 150.960938 283.410156 151.003906 283.40625 151.050781 C 283.265625 152.308594 283.070312 153.550781 282.8125 154.761719 C 282.8125 154.769531 282.8125 154.773438 282.808594 154.78125 C 282.027344 158.472656 280.691406 161.898438 278.707031 164.832031 L 278.710938 164.832031 C 276.160156 168.59375 272.550781 171.542969 267.65625 173.183594 C 266.558594 173.554688 265.398438 173.863281 264.160156 174.089844 L 263.96875 174.578125 C 263.964844 174.582031 263.960938 174.582031 263.957031 174.585938 C 260.738281 176.957031 258.914062 180.257812 259.285156 184.0625 C 256.996094 186.71875 256.199219 190.671875 256.601562 194.148438 C 255.445312 194.910156 254.59375 196.558594 254.261719 197.894531 C 253.476562 201.050781 254.449219 204.152344 255.085938 207.265625 C 255 208.925781 255.050781 210.332031 255.265625 211.394531 C 255.039062 211.625 254.875 211.890625 254.828125 212.203125 C 254.511719 214.261719 254.359375 215.476562 254.613281 217.257812 C 254.945312 219.542969 255.871094 221.71875 257.609375 222.742188 C 257.429688 221.703125 258.238281 220.8125 258.4375 219.496094 C 264.875 224.820312 260.910156 215.65625 260.097656 211.539062 C 262.726562 208.925781 265.222656 203.855469 264.335938 200.003906 C 265.410156 198.804688 266.417969 197.578125 267.351562 196.453125 C 268.632812 194.902344 271.121094 191.929688 270.769531 189.554688 C 274.160156 186.800781 276.984375 183.308594 276.28125 179.035156 C 280.613281 176.058594 285.84375 170.816406 285.238281 166.519531 C 288.207031 164.421875 289.84375 160.964844 291.046875 157.53125 C 292.664062 152.910156 292.15625 148.804688 291.523438 144.359375 C 292.679688 139.121094 293.171875 133.777344 293.058594 129 C 292.703125 113.375 287.917969 102.617188 271.488281 98.820312 C 267.96875 91.34375 262.207031 83.734375 259.863281 81.074219 L 260.535156 80.621094 C 262.742188 80.882812 264.253906 80.332031 265.214844 79.3125 C 263.324219 75.671875 262.34375 71.613281 262.382812 67.851562 C 262.394531 66.960938 262.445312 66.054688 262.542969 65.152344 C 259.023438 60.871094 254.035156 57.183594 249.335938 54.652344 L 249.5625 54.421875 C 252.925781 47.484375 237.472656 47.484375 234.113281 47.484375 C 227.84375 47.484375 220.894531 48.824219 215.523438 52.410156 L 214.625 51.960938 C 207.59375 49.101562 180.675781 51.644531 187.152344 63.402344 C 180.753906 63.734375 173.773438 67.03125 168.945312 70.773438 C 165.585938 73.460938 157.742188 82.191406 164.914062 85.101562 L 164.695312 85.773438 C 160.683594 87.777344 157.75 94.984375 156.21875 99.523438 C 152.464844 93.949219 149.390625 87.53125 144.464844 83.574219 C 139.605469 79.753906 135.214844 74.554688 129.824219 71.863281 C 123.542969 68.582031 116.503906 67.761719 110.015625 68.34375 C 102.523438 66.59375 96.453125 71.671875 91.605469 76.492188 C 83.015625 84.132812 79.316406 93.292969 78.566406 104.382812 C 78.246094 111.183594 77.875 117.703125 75.683594 123.972656 L 101.074219 139.851562 C 103.164062 139.5625 105.253906 139.242188 107.34375 138.894531 C 96.1875 133.683594 92.566406 120.378906 93.507812 107.226562 C 95.203125 105.925781 96.277344 104.121094 97.183594 101.019531 C 98.535156 97.675781 97.488281 97.554688 100.671875 94.847656 C 102.425781 93.460938 105.429688 93.179688 106.65625 90.882812 C 109.230469 85.238281 104.308594 82.855469 111.074219 77.707031 C 111.242188 77.609375 111.410156 77.507812 111.578125 77.402344 C 111.773438 77.429688 111.96875 77.460938 112.164062 77.480469 C 120.417969 79.511719 116.851562 83.65625 121.457031 87.808594 C 123.496094 89.425781 126.367188 88.488281 128.527344 89.0625 C 132.519531 90.269531 131.621094 90.800781 134.167969 93.316406 C 139.859375 106.425781 141.082031 123.980469 134.191406 133.800781 C 138.582031 132.753906 142.871094 131.503906 146.933594 129.882812 C 148.003906 129.453125 149.089844 128.972656 150.1875 128.445312 C 150.328125 121.835938 152.421875 115.335938 156.875 110.242188 C 157.53125 109.523438 158.21875 108.835938 158.921875 108.160156 C 159.058594 108.027344 159.195312 107.902344 159.332031 107.773438 C 160.035156 107.113281 160.75 106.472656 161.492188 105.867188 C 169.023438 99.695312 178.503906 96.320312 188.246094 99.148438 C 192.167969 100.105469 195.441406 102.121094 198.128906 104.800781 C 197.589844 91.808594 201.324219 78.324219 208.621094 72.742188 C 212.722656 76.703125 218.84375 79.710938 221.613281 77.550781 C 225.902344 80.003906 231.941406 84.03125 237.503906 84.820312 C 240.585938 90.765625 242.824219 97.632812 243.570312 104.34375 C 237.300781 109.363281 233.152344 116.980469 232.089844 126.148438 C 231.898438 127.90625 231.824219 129.734375 231.816406 131.585938 C 231.753906 131.617188 231.691406 131.652344 231.625 131.6875 C 231.046875 131.988281 230.449219 132.269531 229.824219 132.535156 C 229.679688 132.59375 229.527344 132.652344 229.382812 132.710938 C 228.757812 132.960938 228.117188 133.199219 227.449219 133.410156 C 227.398438 133.429688 227.351562 133.445312 227.300781 133.460938 C 223.679688 134.691406 220.421875 135.089844 217.507812 134.808594 C 213.828125 134.449219 210.703125 133.007812 208.101562 130.777344 C 208.101562 130.777344 208.101562 130.78125 208.101562 130.78125 C 208.121094 131.335938 208.136719 131.890625 208.136719 132.433594 C 208.136719 132.710938 208.132812 133.003906 208.128906 133.292969 C 208.128906 133.464844 208.128906 133.636719 208.125 133.816406 C 208.117188 134.179688 208.109375 134.550781 208.097656 134.929688 C 208.097656 135.007812 208.09375 135.085938 208.089844 135.164062 C 208.066406 135.910156 208.03125 136.6875 207.984375 137.488281 C 207.972656 137.664062 207.960938 137.839844 207.949219 138.015625 C 207.902344 138.738281 207.839844 139.480469 207.769531 140.230469 C 207.753906 140.417969 207.734375 140.605469 207.714844 140.796875 C 207.671875 141.222656 207.625 141.652344 207.574219 142.085938 C 207.535156 142.394531 207.492188 142.707031 207.449219 143.019531 C 207.417969 143.261719 207.390625 143.503906 207.355469 143.746094 C 206.972656 146.382812 206.417969 149.066406 205.621094 151.609375 C 205.621094 151.75 205.621094 151.898438 205.609375 152.050781 C 205.191406 158.910156 201.820312 166.429688 196.359375 170.988281 C 196.5625 172.890625 197.269531 175.171875 199.390625 176.230469 C 200.742188 176.910156 202.921875 177.160156 205.230469 177.210938 L 206.882812 175.808594 C 214.019531 174.480469 220.25 176.21875 225.609375 179.429688 C 230.554688 176.882812 236.183594 175.632812 242.542969 176.8125" fill="#2e2025"/></g><g id="change4_3"><path d="M 348.109375 137.566406 C 342.898438 139.21875 337.007812 140.664062 333.257812 139.992188 L 331.574219 140.210938 C 330.167969 143.136719 326.339844 144.316406 322.582031 144.511719 C 320.101562 144.644531 317.65625 144.355469 315.960938 143.84375 C 310.375 142.464844 307.03125 137.5625 307.03125 137.5625 C 307.03125 137.5625 301.242188 134.167969 298.628906 133.324219 C 297.535156 133.027344 296.476562 132.695312 295.4375 132.335938 C 295.546875 138.011719 296.433594 143.488281 300.734375 147.6875 C 304.441406 151.308594 309.675781 153.390625 314.644531 151.464844 C 317.160156 150.488281 321.148438 148.34375 322.328125 145.441406 C 326.191406 150.941406 332.46875 154.359375 339.648438 153.21875 C 343.929688 152.539062 347.75 150.140625 348.578125 145.6875 C 349.070312 143.050781 348.644531 140.257812 348.109375 137.566406" fill="#2e2025"/></g><g id="change4_4"><path d="M 137.054688 227.816406 L 119.570312 252.691406 C 103.203125 269.058594 92.976562 268.183594 76.609375 284.550781 C 76.214844 284.253906 75.796875 283.957031 75.363281 283.660156 C 74.914062 287.554688 74.609375 291.65625 74.476562 296.027344 C 90.605469 298.152344 104.503906 302.363281 119.34375 304.289062 C 129.078125 277.859375 144.703125 249.355469 148.527344 221.210938 C 146.039062 221.425781 143.542969 221.59375 141.046875 221.699219 L 137.054688 227.816406" fill="#2e2025"/></g><g id="change4_5"><path d="M 95.863281 219.445312 C 91.125 231.769531 86.390625 242.191406 82.578125 253.046875 C 91.511719 242.304688 100.710938 232.554688 110.910156 220.625 C 107.34375 220.253906 103.78125 219.84375 100.230469 219.402344 C 96.984375 219 99.109375 219.847656 95.863281 219.445312" fill="#2e2025"/></g><g id="change4_6"><path d="M 263.394531 60.320312 C 264.101562 57.464844 265.160156 54.644531 266.476562 51.960938 C 269.324219 54.234375 273.632812 49.84375 275.367188 47.835938 C 278.332031 44.347656 281.972656 40.398438 285.652344 37.609375 C 287.417969 36.335938 289.675781 35.359375 291.753906 35.007812 C 292.828125 34.824219 293.753906 34.921875 294.363281 34.34375 C 294.5 34.402344 294.636719 34.464844 294.769531 34.527344 C 294.964844 35.316406 295.753906 35.765625 296.511719 36.515625 C 298.011719 37.992188 299.296875 40.089844 300.007812 42.144531 C 301.417969 46.542969 302.128906 51.867188 302.554688 56.425781 C 302.820312 59.066406 303.820312 65.125 307.453125 64.910156 C 307.226562 66.515625 306.882812 68.105469 306.441406 69.671875 C 288.609375 82.746094 278.976562 109.539062 300.488281 121.398438 C 296.324219 106.882812 306.144531 88.671875 319.15625 83.039062 C 318.351562 84.558594 317.789062 86 317.589844 87.019531 C 316.191406 95.253906 322.371094 94.863281 328.6875 97.121094 C 333.996094 98.839844 339.382812 106.585938 342.660156 98.867188 C 343.882812 95.945312 344.007812 92.609375 343.214844 89.472656 C 348.460938 95.601562 348.089844 106.761719 345.617188 113.890625 C 345.472656 114.300781 345.574219 114.640625 345.785156 114.894531 C 343.132812 122.121094 339.097656 128.742188 334.09375 133.074219 C 335.578125 133.261719 337.117188 133.367188 338.726562 133.386719 C 359.285156 133.796875 365.824219 116.019531 364.976562 99.304688 C 364.632812 91.503906 363.726562 81.398438 358.050781 75.285156 C 354.214844 70.839844 348.789062 68.785156 343.523438 67.054688 L 342.648438 67.292969 C 332.035156 59.65625 319.722656 61.339844 309.488281 67.621094 C 310.816406 65.722656 311.867188 63.6875 312.652344 61.425781 C 315.371094 53.148438 314.613281 43.5625 309.128906 36.550781 C 302.625 28.074219 288.988281 24.066406 278.664062 28.285156 C 273.015625 30.617188 266.601562 35.488281 264.671875 40.882812 C 262.96875 45.773438 261.277344 55.34375 263.164062 60.164062 L 263.394531 60.320312" fill="#2e2025"/></g><g id="change4_7"><path d="M 383.394531 298.957031 C 382.953125 293.082031 381.363281 287.058594 379.433594 281.078125 C 377.191406 282.667969 374.734375 284.109375 372.8125 285.550781 C 356.445312 269.183594 346.21875 270.058594 329.851562 253.691406 L 312.753906 229.367188 C 311.234375 229.214844 309.828125 229.050781 308.582031 228.871094 C 306.640625 228.53125 304.304688 228.179688 301.824219 227.835938 C 302.839844 233.195312 304.222656 238.5625 305.878906 243.921875 C 303.835938 245.011719 301.71875 245.988281 299.546875 246.886719 C 298.824219 247.1875 298.09375 247.472656 297.359375 247.753906 C 296.859375 247.945312 296.355469 248.136719 295.851562 248.316406 C 295.132812 248.574219 294.410156 248.816406 293.683594 249.054688 C 293.136719 249.234375 292.59375 249.414062 292.042969 249.582031 C 291.34375 249.796875 290.636719 250 289.925781 250.199219 C 289.332031 250.367188 288.734375 250.53125 288.136719 250.6875 C 287.460938 250.863281 286.777344 251.027344 286.09375 251.191406 C 285.445312 251.34375 284.800781 251.496094 284.148438 251.636719 C 283.496094 251.777344 282.839844 251.910156 282.183594 252.039062 C 281.488281 252.175781 280.792969 252.308594 280.09375 252.433594 C 279.464844 252.542969 278.832031 252.648438 278.199219 252.75 C 277.464844 252.867188 276.730469 252.980469 275.992188 253.082031 C 262.804688 254.9375 248.902344 254.675781 235.8125 253.136719 C 235.550781 267.058594 234.585938 280.980469 232.894531 294.902344 C 231.394531 308.902344 226.894531 322.402344 225.894531 335.902344 C 222.894531 361.902344 223.394531 388.902344 224.894531 414.902344 C 225.394531 419.402344 224.394531 427.402344 227.394531 430.402344 C 229.894531 432.402344 240.894531 433.402344 243.894531 433.402344 C 249.394531 433.902344 255.894531 433.902344 260.894531 432.402344 C 268.394531 429.902344 267.894531 428.402344 267.894531 420.402344 C 266.894531 390.402344 269.894531 358.402344 274.394531 328.902344 C 274.894531 324.902344 275.894531 321.402344 275.894531 317.402344 C 283.394531 344.902344 284.394531 373.902344 292.394531 401.402344 C 294.894531 408.902344 298.894531 415.402344 301.894531 422.902344 C 304.894531 429.902344 302.894531 431.902344 311.394531 431.402344 C 324.894531 430.402344 340.894531 423.902344 353.894531 419.902344 C 350.894531 408.402344 345.394531 396.402344 341.394531 384.902344 C 336.394531 369.402344 334.394531 354.902344 332.894531 338.902344 C 332.347656 331.488281 331.394531 321.140625 329.816406 311.164062 C 343.125 312.414062 356.527344 312.679688 369.191406 310.324219 C 378.261719 308.691406 383.871094 308.507812 383.394531 298.957031" fill="#2e2025"/></g><g id="change4_8"><path d="M 346.605469 230.910156 C 355.84375 241.359375 364.367188 250.621094 372.796875 261.425781 C 372.722656 261.183594 372.644531 260.9375 372.574219 260.695312 C 369.695312 250.871094 366.917969 241.011719 364.34375 231.101562 C 359.566406 231.085938 353.304688 231.035156 346.605469 230.910156" fill="#2e2025"/></g><g id="change5_1"><path d="M 208.140625 132.433594 C 208.140625 119.808594 202.402344 102.59375 188.246094 99.152344 C 176.386719 95.710938 164.910156 101.449219 156.878906 110.246094 C 148.84375 119.429688 148.460938 133.199219 153.433594 143.910156 C 153.757812 144.597656 154.113281 145.34375 154.5 146.136719 C 154.347656 146.597656 154.171875 147.058594 153.96875 147.511719 C 151.632812 152.363281 146.421875 154.878906 141.390625 156.316406 C 136.898438 157.753906 131.507812 159.90625 130.429688 165.117188 C 128.992188 172.125 134.742188 168.171875 137.976562 167.632812 C 138.335938 169.789062 137.257812 172.304688 137.257812 174.460938 C 137.078125 178.054688 138.15625 180.210938 139.773438 183.265625 C 143.007812 189.191406 146.960938 192.964844 153.96875 193.503906 C 158.457031 193.863281 165.105469 193.683594 161.332031 187.757812 C 158.277344 182.90625 155.761719 178.773438 155.046875 172.84375 C 154.507812 169.429688 155.761719 167.632812 157.199219 164.398438 C 158.46875 161.390625 159.035156 157.964844 159.152344 154.609375 C 161.371094 158.132812 163.960938 161.480469 166.796875 163.589844 C 164.914062 160.703125 163.457031 157.554688 162.523438 154.472656 C 158.140625 140.011719 162.441406 122.410156 172.160156 115.277344 C 175.003906 118.90625 177.929688 121.3125 178.730469 126.902344 C 182.351562 126.523438 191.304688 125.59375 196.945312 123.125 C 202.339844 130.933594 206.101562 141.738281 205.628906 151.613281 C 207.671875 145.078125 208.140625 137.597656 208.140625 132.433594" fill="#aa5a58"/></g></g></svg>